<?xml version="1.0" encoding="utf-8"?>
<!-- Generator: Adobe Illustrator 18.0.0, SVG Export Plug-In . SVG Version: 6.00 Build 0)  -->
<!DOCTYPE svg PUBLIC "-//W3C//DTD SVG 1.1//EN" "http://www.w3.org/Graphics/SVG/1.1/DTD/svg11.dtd">
<svg version="1.1" id="图层_1" xmlns="http://www.w3.org/2000/svg" xmlns:xlink="http://www.w3.org/1999/xlink" x="0px" y="0px"
	 viewBox="0 0 18 18" enable-background="new 0 0 18 18" xml:space="preserve">
<path fill-rule="evenodd" clip-rule="evenodd" fill="#108EE9" d="M10.7,14.6H9.5H8.4H7.3c-0.3,0-0.6-0.3-0.6-0.6s0.3-0.6,0.6-0.6
	h1.1V7.8H7.3C7,7.8,6.7,7.6,6.7,7.3C6.7,7,7,6.7,7.3,6.7h1.1H9c0.3,0,0.6,0.3,0.6,0.6v6.2h1.1c0.3,0,0.6,0.3,0.6,0.6
	S11,14.6,10.7,14.6z M9,3.4c0.3,0,0.6,0.3,0.6,0.6S9.3,4.5,9,4.5S8.4,4.2,8.4,3.9S8.7,3.4,9,3.4z M9,0C4,0,0,4,0,9s4,9,9,9s9-4,9-9
	S14,0,9,0z"/>
</svg>
