<?xml version="1.0" encoding="utf-8"?>
<!-- Generator: Adobe Illustrator 18.0.0, SVG Export Plug-In . SVG Version: 6.00 Build 0)  -->
<!DOCTYPE svg PUBLIC "-//W3C//DTD SVG 1.1//EN" "http://www.w3.org/Graphics/SVG/1.1/DTD/svg11.dtd">
<svg version="1.1" id="图层_1" xmlns="http://www.w3.org/2000/svg" xmlns:xlink="http://www.w3.org/1999/xlink" x="0px" y="0px"
	 viewBox="0 0 18 18" enable-background="new 0 0 18 18" xml:space="preserve">
<path fill-rule="evenodd" clip-rule="evenodd" fill="#00A854" d="M14.4,6.6l-7.3,7.1c-0.2,0.2-0.6,0.2-0.8,0l-2.8-2.7
	c-0.2-0.2-0.2-0.6,0-0.8c0.2-0.2,0.6-0.2,0.8,0l2.4,2.3l6.9-6.7c0.2-0.2,0.6-0.2,0.8,0C14.7,6,14.7,6.4,14.4,6.6z M9,0C4,0,0,4,0,9
	s4,9,9,9s9-4,9-9S14,0,9,0z"/>
</svg>
