<?xml version="1.0" encoding="utf-8"?>
<!-- Generator: Adobe Illustrator 18.0.0, SVG Export Plug-In . SVG Version: 6.00 Build 0)  -->
<!DOCTYPE svg PUBLIC "-//W3C//DTD SVG 1.1//EN" "http://www.w3.org/Graphics/SVG/1.1/DTD/svg11.dtd">
<svg version="1.1" id="图层_1" xmlns="http://www.w3.org/2000/svg" xmlns:xlink="http://www.w3.org/1999/xlink" x="0px" y="0px"
	 viewBox="0 0 18 18" enable-background="new 0 0 18 18" xml:space="preserve">
<path fill-rule="evenodd" clip-rule="evenodd" fill="#FFBF00" d="M9.6,11.8c0,0.3-0.3,0.6-0.6,0.6s-0.6-0.3-0.6-0.6V3.9
	c0-0.3,0.3-0.6,0.6-0.6s0.6,0.3,0.6,0.6V11.8z M9.6,14.1c0,0.3-0.3,0.6-0.6,0.6s-0.6-0.3-0.6-0.6s0.3-0.6,0.6-0.6S9.6,13.8,9.6,14.1
	z M9,0C4,0,0,4,0,9s4,9,9,9s9-4,9-9S14,0,9,0z"/>
</svg>
